# Blender v2.69 (sub 0) OBJ File: 'box.blend'
# www.blender.org
mtllib box.mtl
o Cube
v 1 -1 -1
v 1 -1 1
v -1 -1 1
v -1 -1 -1
v 1 1 -1
v 1 1 1
v -1 1 1
v -1 1 -1
vt 0.000000 0.000000
vt 1.000000 0.000000
vt 0.000000 1.000000
vt 1.000000 1.000000
vn 0.000000 -1.000000 0.000000
vn 0.000000 1.000000 0.000000
vn 1.000000 -0.000000 0.000000
vn -0.000000 -0.000000 1.000000
vn -1.000000 -0.000000 -0.000000
vn 0.000000 0.000000 -1.000000
vn 1.000000 0.000000 0.000001
usemtl Material
s off
f 1/1/1 2/2/1 4/3/1
f 5/3/2 8/1/2 6/4/2
f 1/4/3 5/3/3 2/2/3
f 2/3/4 6/1/4 3/4/4
f 3/1/5 7/2/5 4/3/5
f 5/1/6 1/2/6 8/3/6
f 2/2/1 3/4/1 4/3/1
f 8/1/2 7/2/2 6/4/2
f 5/3/7 6/1/7 2/2/7
f 6/1/4 7/2/4 3/4/4
f 7/2/5 8/4/5 4/3/5
f 1/2/6 4/4/6 8/3/6
